<svg xmlns="http://www.w3.org/2000/svg" xmlns:xlink="http://www.w3.org/1999/xlink" width="500" zoomAndPan="magnify" viewBox="0 0 375 374.999991" height="500" preserveAspectRatio="xMidYMid meet" version="1.0"><defs><g/><clipPath id="a33d77af65"><path d="M 134 61.039062 L 241 61.039062 L 241 186.289062 L 134 186.289062 Z M 134 61.039062 " clip-rule="nonzero"/></clipPath><clipPath id="cda2c90e58"><path d="M 152.277344 123.792969 L 219.027344 123.792969 L 219.027344 239 L 152.277344 239 Z M 152.277344 123.792969 " clip-rule="nonzero"/></clipPath><clipPath id="5981c3039c"><path d="M 177.78125 88.382812 L 224.28125 88.382812 L 224.28125 122.882812 L 177.78125 122.882812 Z M 177.78125 88.382812 " clip-rule="nonzero"/></clipPath></defs><g clip-path="url(#a33d77af65)"><path fill="#065f46" d="M 233.554688 158.015625 C 229.347656 172.4375 220.261719 181.804688 201.03125 181.804688 L 166.425781 181.804688 L 166.425781 65.921875 L 176.441406 65.921875 L 176.441406 61.039062 L 136.703125 61.039062 L 136.703125 65.921875 L 146.71875 65.921875 L 146.71875 181.804688 L 134.023438 181.804688 L 134.023438 186.535156 L 240.96875 186.535156 L 240.96875 158.015625 Z M 233.554688 158.015625 " fill-opacity="1" fill-rule="nonzero"/></g><g clip-path="url(#cda2c90e58)"><path fill="#065f46" d="M 219.183594 123.792969 L 182.730469 123.792969 L 182.730469 128.273438 L 191.917969 128.273438 L 191.917969 207.128906 C 191.917969 223.460938 183.671875 229.777344 173.472656 229.777344 C 165.917969 229.777344 159.4375 226.332031 156.589844 217.902344 L 152.339844 217.902344 C 155.949219 230.074219 167.226562 238.941406 180.570312 238.941406 C 196.835938 238.941406 210.019531 225.757812 210.019531 209.492188 L 210.019531 128.273438 L 219.207031 128.273438 L 219.207031 123.792969 Z M 219.183594 123.792969 " fill-opacity="1" fill-rule="nonzero"/></g><path fill="#065f46" d="M 184.359375 105.039062 L 183.449219 103.46875 L 182.539062 105.039062 L 183.449219 106.554688 Z M 184.359375 105.039062 " fill-opacity="1" fill-rule="nonzero"/><path fill="#065f46" d="M 194.679688 101.292969 L 193.820312 99.726562 L 192.910156 101.292969 L 193.820312 102.8125 Z M 194.679688 101.292969 " fill-opacity="1" fill-rule="nonzero"/><path fill="#065f46" d="M 219.421875 105.039062 L 218.511719 103.46875 L 217.601562 105.039062 L 218.511719 106.554688 Z M 219.421875 105.039062 " fill-opacity="1" fill-rule="nonzero"/><path fill="#065f46" d="M 209.050781 101.292969 L 208.140625 99.726562 L 207.277344 101.292969 L 208.140625 102.8125 Z M 209.050781 101.292969 " fill-opacity="1" fill-rule="nonzero"/><g clip-path="url(#5981c3039c)"><path fill="#065f46" d="M 217.195312 111.515625 L 213.90625 100.636719 L 207.683594 108.78125 L 201.816406 97.144531 L 203.585938 93.605469 L 201.003906 88.445312 L 198.375 93.605469 L 200.144531 97.144531 L 194.277344 108.730469 L 188.15625 100.636719 L 184.867188 111.566406 L 177.78125 103.417969 L 182.640625 118.800781 L 182.691406 118.902344 L 182.691406 122.644531 L 219.269531 122.644531 L 219.269531 118.902344 L 219.371094 118.648438 L 224.175781 103.417969 Z M 217.550781 118.042969 L 213.554688 118.042969 L 216.539062 114.601562 Z M 213.300781 103.925781 L 216.03125 112.878906 L 212.085938 117.433594 L 208.492188 110.300781 Z M 210.667969 118.042969 L 202.574219 118.042969 L 207.429688 111.667969 Z M 200.042969 93.605469 L 200.953125 91.832031 L 201.867188 93.605469 L 200.953125 95.425781 Z M 201.003906 98.816406 L 206.671875 110.097656 L 201.003906 117.585938 L 195.339844 110.046875 Z M 185.472656 114.652344 L 188.40625 118.042969 L 184.460938 118.042969 Z M 199.4375 118.042969 L 191.292969 118.042969 L 194.53125 111.566406 Z M 188.761719 103.925781 L 193.519531 110.199219 L 189.925781 117.433594 L 186.03125 112.929688 Z M 181.425781 109.996094 L 184.308594 113.285156 L 183.398438 116.21875 Z M 217.753906 121.128906 L 184.207031 121.128906 L 184.207031 119.558594 L 217.753906 119.558594 Z M 218.5625 116.117188 L 217.703125 113.234375 L 220.535156 109.996094 Z M 218.5625 116.117188 " fill-opacity="1" fill-rule="nonzero"/></g><g fill="#000000" fill-opacity="1"><g transform="translate(13.862713, 302.646873)"><g><path d="M 2.78125 -23.5 L 8.234375 -23.5 L 8.234375 -4.4375 L 20.015625 -4.4375 L 20.015625 0 L 2.78125 0 Z M 2.78125 -23.5 "/></g></g></g><g fill="#000000" fill-opacity="1"><g transform="translate(34.127353, 302.646873)"><g><path d="M 14.0625 -8.328125 L 14.0625 0 L 8.625 0 L 8.625 -8.390625 L -0.46875 -23.5 L 5.3125 -23.5 L 11.578125 -13.0625 L 17.859375 -23.5 L 23.203125 -23.5 Z M 14.0625 -8.328125 "/></g></g></g><g fill="#000000" fill-opacity="1"><g transform="translate(56.807661, 302.646873)"><g><path d="M 2.78125 -23.5 L 8.234375 -23.5 L 8.234375 0 L 2.78125 0 Z M 2.78125 -23.5 "/></g></g></g><g fill="#000000" fill-opacity="1"><g transform="translate(67.812318, 302.646873)"><g><path d="M 24.34375 -23.5 L 24.34375 0 L 19.875 0 L 8.15625 -14.265625 L 8.15625 0 L 2.78125 0 L 2.78125 -23.5 L 7.28125 -23.5 L 18.96875 -9.234375 L 18.96875 -23.5 Z M 24.34375 -23.5 "/></g></g></g><g fill="#000000" fill-opacity="1"><g transform="translate(94.921311, 302.646873)"><g><path d="M 10.515625 0.40625 C 8.648438 0.40625 6.847656 0.15625 5.109375 -0.34375 C 3.378906 -0.851562 1.988281 -1.507812 0.9375 -2.3125 L 2.78125 -6.40625 C 3.789062 -5.675781 4.988281 -5.085938 6.375 -4.640625 C 7.769531 -4.191406 9.160156 -3.96875 10.546875 -3.96875 C 12.085938 -3.96875 13.226562 -4.195312 13.96875 -4.65625 C 14.707031 -5.113281 15.078125 -5.722656 15.078125 -6.484375 C 15.078125 -7.035156 14.859375 -7.492188 14.421875 -7.859375 C 13.984375 -8.234375 13.421875 -8.53125 12.734375 -8.75 C 12.054688 -8.976562 11.132812 -9.226562 9.96875 -9.5 C 8.175781 -9.925781 6.707031 -10.351562 5.5625 -10.78125 C 4.425781 -11.207031 3.445312 -11.890625 2.625 -12.828125 C 1.8125 -13.765625 1.40625 -15.019531 1.40625 -16.59375 C 1.40625 -17.957031 1.773438 -19.191406 2.515625 -20.296875 C 3.253906 -21.398438 4.367188 -22.273438 5.859375 -22.921875 C 7.347656 -23.578125 9.164062 -23.90625 11.3125 -23.90625 C 12.8125 -23.90625 14.273438 -23.722656 15.703125 -23.359375 C 17.140625 -23.003906 18.394531 -22.492188 19.46875 -21.828125 L 17.796875 -17.703125 C 15.628906 -18.929688 13.457031 -19.546875 11.28125 -19.546875 C 9.757812 -19.546875 8.632812 -19.296875 7.90625 -18.796875 C 7.175781 -18.304688 6.8125 -17.660156 6.8125 -16.859375 C 6.8125 -16.046875 7.226562 -15.441406 8.0625 -15.046875 C 8.90625 -14.660156 10.191406 -14.28125 11.921875 -13.90625 C 13.710938 -13.476562 15.175781 -13.050781 16.3125 -12.625 C 17.457031 -12.195312 18.4375 -11.523438 19.25 -10.609375 C 20.070312 -9.691406 20.484375 -8.453125 20.484375 -6.890625 C 20.484375 -5.546875 20.109375 -4.316406 19.359375 -3.203125 C 18.609375 -2.097656 17.484375 -1.21875 15.984375 -0.5625 C 14.484375 0.0820312 12.660156 0.40625 10.515625 0.40625 Z M 10.515625 0.40625 "/></g></g></g><g fill="#000000" fill-opacity="1"><g transform="translate(116.326689, 302.646873)"><g><path d="M 14.0625 -8.328125 L 14.0625 0 L 8.625 0 L 8.625 -8.390625 L -0.46875 -23.5 L 5.3125 -23.5 L 11.578125 -13.0625 L 17.859375 -23.5 L 23.203125 -23.5 Z M 14.0625 -8.328125 "/></g></g></g><g fill="#000000" fill-opacity="1"><g transform="translate(139.006997, 302.646873)"><g/></g></g><g fill="#000000" fill-opacity="1"><g transform="translate(148.501852, 302.646873)"><g><path d="M 7.125 0.40625 C 5.53125 0.40625 4.066406 0.109375 2.734375 -0.484375 C 1.398438 -1.078125 0.3125 -1.921875 -0.53125 -3.015625 L 2.484375 -6.65625 C 3.765625 -4.925781 5.21875 -4.0625 6.84375 -4.0625 C 9.0625 -4.0625 10.171875 -5.359375 10.171875 -7.953125 L 10.171875 -19.140625 L 1.90625 -19.140625 L 1.90625 -23.5 L 15.578125 -23.5 L 15.578125 -8.265625 C 15.578125 -5.367188 14.859375 -3.195312 13.421875 -1.75 C 11.992188 -0.3125 9.894531 0.40625 7.125 0.40625 Z M 7.125 0.40625 "/></g></g></g><g fill="#000000" fill-opacity="1"><g transform="translate(166.652793, 302.646873)"><g><path d="M 20.984375 -4.359375 L 20.984375 0 L 2.78125 0 L 2.78125 -23.5 L 20.546875 -23.5 L 20.546875 -19.140625 L 8.1875 -19.140625 L 8.1875 -14.03125 L 19.109375 -14.03125 L 19.109375 -9.8125 L 8.1875 -9.8125 L 8.1875 -4.359375 Z M 20.984375 -4.359375 "/></g></g></g><g fill="#000000" fill-opacity="1"><g transform="translate(189.165324, 302.646873)"><g><path d="M 38.3125 -23.5 L 30.625 0 L 24.78125 0 L 19.609375 -15.921875 L 14.265625 0 L 8.46875 0 L 0.734375 -23.5 L 6.375 -23.5 L 11.6875 -6.984375 L 17.21875 -23.5 L 22.265625 -23.5 L 27.640625 -6.84375 L 33.109375 -23.5 Z M 38.3125 -23.5 "/></g></g></g><g fill="#000000" fill-opacity="1"><g transform="translate(228.184841, 302.646873)"><g><path d="M 20.984375 -4.359375 L 20.984375 0 L 2.78125 0 L 2.78125 -23.5 L 20.546875 -23.5 L 20.546875 -19.140625 L 8.1875 -19.140625 L 8.1875 -14.03125 L 19.109375 -14.03125 L 19.109375 -9.8125 L 8.1875 -9.8125 L 8.1875 -4.359375 Z M 20.984375 -4.359375 "/></g></g></g><g fill="#000000" fill-opacity="1"><g transform="translate(250.697372, 302.646873)"><g><path d="M 2.78125 -23.5 L 8.234375 -23.5 L 8.234375 -4.4375 L 20.015625 -4.4375 L 20.015625 0 L 2.78125 0 Z M 2.78125 -23.5 "/></g></g></g><g fill="#000000" fill-opacity="1"><g transform="translate(270.962012, 302.646873)"><g><path d="M 2.78125 -23.5 L 8.234375 -23.5 L 8.234375 -4.4375 L 20.015625 -4.4375 L 20.015625 0 L 2.78125 0 Z M 2.78125 -23.5 "/></g></g></g><g fill="#000000" fill-opacity="1"><g transform="translate(291.226652, 302.646873)"><g><path d="M 20.984375 -4.359375 L 20.984375 0 L 2.78125 0 L 2.78125 -23.5 L 20.546875 -23.5 L 20.546875 -19.140625 L 8.1875 -19.140625 L 8.1875 -14.03125 L 19.109375 -14.03125 L 19.109375 -9.8125 L 8.1875 -9.8125 L 8.1875 -4.359375 Z M 20.984375 -4.359375 "/></g></g></g><g fill="#000000" fill-opacity="1"><g transform="translate(313.739183, 302.646873)"><g><path d="M 17.765625 0 L 13.234375 -6.546875 L 8.234375 -6.546875 L 8.234375 0 L 2.78125 0 L 2.78125 -23.5 L 12.96875 -23.5 C 15.039062 -23.5 16.84375 -23.148438 18.375 -22.453125 C 19.914062 -21.765625 21.097656 -20.78125 21.921875 -19.5 C 22.753906 -18.226562 23.171875 -16.71875 23.171875 -14.96875 C 23.171875 -13.226562 22.75 -11.722656 21.90625 -10.453125 C 21.070312 -9.191406 19.878906 -8.226562 18.328125 -7.5625 L 23.609375 0 Z M 17.65625 -14.96875 C 17.65625 -16.289062 17.226562 -17.304688 16.375 -18.015625 C 15.53125 -18.722656 14.289062 -19.078125 12.65625 -19.078125 L 8.234375 -19.078125 L 8.234375 -10.875 L 12.65625 -10.875 C 14.289062 -10.875 15.53125 -11.234375 16.375 -11.953125 C 17.226562 -12.671875 17.65625 -13.675781 17.65625 -14.96875 Z M 17.65625 -14.96875 "/></g></g></g><g fill="#000000" fill-opacity="1"><g transform="translate(338.398962, 302.646873)"><g><path d="M 14.0625 -8.328125 L 14.0625 0 L 8.625 0 L 8.625 -8.390625 L -0.46875 -23.5 L 5.3125 -23.5 L 11.578125 -13.0625 L 17.859375 -23.5 L 23.203125 -23.5 Z M 14.0625 -8.328125 "/></g></g></g></svg>